<svg width="53" height="51" viewBox="0 0 53 51" fill="none" xmlns="http://www.w3.org/2000/svg">
<path d="M21.1279 8.0403C21.2806 8.191 21.2806 8.191 21.4073 8.39634C22.3707 9.83135 23.8406 10.5214 25.4814 10.8911C27.1565 11.1878 28.8632 10.7536 30.2677 9.8295C30.8153 9.43194 31.3332 8.95752 31.7352 8.41127C31.7804 8.36024 31.8256 8.30921 31.8721 8.25663C32.4615 8.24697 33.0399 8.45457 33.6027 8.61717C33.7315 8.6537 33.7315 8.6537 33.863 8.69097C36.4453 9.45913 38.8772 10.6365 41.102 12.1505C41.167 12.1946 41.167 12.1946 41.2333 12.2396C42.1898 12.8941 43.0857 13.6269 43.9326 14.4174C44.1239 14.596 44.3182 14.7707 44.5137 14.9447C44.9401 15.3282 45.3396 15.7256 45.7133 16.1607C45.8237 16.2891 45.9352 16.4165 46.0474 16.5432C48.3139 19.1192 50.0106 22.1356 51.1973 25.3464C51.2199 25.4071 51.2426 25.4677 51.2659 25.5302C52.1883 28.0132 53 30.8951 53 33.5668C50.7156 33.5668 48.4312 33.5668 46.0775 33.5668C45.9482 33.0508 45.8188 32.5347 45.6855 32.003C44.5408 27.4983 42.9169 23.1792 39.8041 19.6498C39.7703 19.6115 39.7365 19.5732 39.7018 19.5337C39.3042 19.0852 38.9001 18.6584 38.434 18.2798C38.3969 18.2489 38.3597 18.2181 38.3214 18.1863C35.8221 16.1135 32.8649 14.8121 29.6367 14.3859C29.5021 14.3669 29.5021 14.3669 29.3648 14.3474C28.4797 14.2302 27.599 14.2172 26.707 14.2189C26.4615 14.2191 26.2161 14.2174 25.9706 14.2156C24.4878 14.2114 23.0253 14.3402 21.5853 14.7043C21.4011 14.7502 21.2162 14.7929 21.0313 14.8357C19.0686 15.3031 17.1661 16.1229 15.5034 17.2702C15.4624 17.2981 15.4214 17.3259 15.3791 17.3546C13.8528 18.3933 12.4176 19.6926 11.3339 21.191C11.248 21.3097 11.1601 21.4268 11.0718 21.5438C10.3217 22.5515 9.6878 23.6451 9.14976 24.7792C9.08714 24.9108 9.02293 25.0416 8.95868 25.1723C8.41764 26.2933 7.98449 27.4667 7.64354 28.6634C7.62112 28.7417 7.62112 28.7417 7.59826 28.8215C7.15434 30.39 6.95333 31.9326 6.77823 33.5668C4.54141 33.5668 2.3046 33.5668 0 33.5668C0.084821 31.4463 0.084821 31.4463 0.157738 30.8267C0.166876 30.7479 0.176015 30.6692 0.18543 30.5881C0.810282 25.5077 2.65976 20.5621 5.98503 16.6213C6.0435 16.5494 6.10197 16.4775 6.16221 16.4035C6.62731 15.8384 7.13215 15.3145 7.64804 14.796C7.74644 14.6966 7.74644 14.6966 7.84682 14.5952C8.2858 14.1582 8.7455 13.7619 9.22993 13.3764C9.31707 13.3042 9.40405 13.2318 9.49076 13.1592C10.2302 12.5481 11.0184 12.0182 11.8258 11.5015C11.8742 11.4706 11.9225 11.4396 11.9722 11.4078C14.2781 9.9459 18.2776 7.71618 21.1279 8.0403Z" fill="#FEFEFE"/>
<path d="M31.2163 28.0963C31.5689 28.3771 31.8615 28.6615 32.143 29.0118C32.0581 29.0095 32.0581 29.0095 31.9714 29.0072C31.7102 29.0011 31.4489 28.9974 31.1876 28.9938C31.054 28.9901 31.054 28.9901 30.9178 28.9864C29.7485 28.9741 28.7543 29.4092 27.9089 30.2131C26.967 31.1792 26.6292 32.267 26.6263 33.5884C26.6456 34.5173 26.9956 35.3213 27.5281 36.0784C27.5579 36.1223 27.5878 36.1662 27.6185 36.2114C28.2224 37.0046 29.3155 37.555 30.2809 37.7167C30.9586 37.7842 31.6098 37.788 32.2633 37.575C32.4382 37.5184 32.6114 37.4816 32.792 37.4485C31.972 38.8498 30.5048 39.8081 28.9719 40.2768C27.0833 40.7624 25.2582 40.4773 23.5604 39.567C23.0183 39.2431 22.5674 38.8266 22.1199 38.3859C22.0618 38.3296 22.0037 38.2733 21.9439 38.2152C21.2169 37.4643 20.749 36.4986 20.4614 35.5016C20.4385 35.4224 20.4155 35.3432 20.3918 35.2616C19.946 33.4291 20.2869 31.6255 21.2031 30.0007C22.186 28.4447 23.7786 27.2711 25.578 26.8543C27.5428 26.4727 29.6053 26.917 31.2163 28.0963Z" fill="#FEFEFE"/>
<path d="M29.2036 0.829679C30.0684 1.47765 30.7685 2.50403 30.9702 3.57883C31.125 4.93541 30.909 6.14662 30.0689 7.24737C30.0292 7.30063 29.9895 7.35389 29.9486 7.40877C29.3543 8.14243 28.5262 8.60616 27.6172 8.83376C27.5384 8.8544 27.5384 8.8544 27.458 8.87545C26.6541 8.99688 25.7052 9.00398 24.9491 8.68954C24.8457 8.64855 24.8457 8.64855 24.7401 8.60673C24.1258 8.33353 23.6849 7.93558 23.2185 7.46369C23.1739 7.41982 23.1293 7.37595 23.0833 7.33074C22.3544 6.55625 22.0168 5.40047 22.0359 4.35551C22.0977 2.93456 22.7314 1.9054 23.7413 0.967418C25.3174 -0.356597 27.5398 -0.242378 29.2036 0.829679Z" fill="#FEFEFE"/>
<path d="M22.6582 20.0837C24.7359 19.4477 27.1116 19.3813 29.3086 19.8386H29.3105C29.3824 19.8535 29.4544 19.8682 29.5283 19.8835C30.7626 20.1498 31.9155 20.5775 33.0312 21.1785L33.0391 21.1824L33.0459 21.1863C33.1174 21.2242 33.1178 21.2239 33.1904 21.2625V21.2615C36.3063 22.9214 38.731 25.8377 39.8711 29.2068L39.9766 29.5349C41.0131 33.061 40.6559 36.9489 38.9375 40.1482L38.9277 40.1658C38.9036 40.2115 38.8793 40.2573 38.8545 40.3044C38.3502 41.2585 37.7204 42.1409 36.9688 42.9812L36.9648 42.9851C36.93 43.0243 36.8952 43.064 36.8594 43.1042C36.4636 43.5468 36.1396 43.8821 35.8027 44.1589L35.7803 44.1765L35.7588 44.196C35.6972 44.249 35.6355 44.3018 35.5723 44.3562C35.1411 44.7243 34.6972 45.0567 34.2236 45.365L34.2197 45.3669C34.1072 45.4404 34.1028 45.4428 33.9961 45.5125C31.08 47.3555 27.3288 48.1517 24.0586 47.4656L24.0498 47.4636L23.834 47.4187C21.5784 46.9397 19.5313 46.0394 17.8457 44.6599L17.833 44.6501L17.8213 44.6404C17.7487 44.5824 17.6754 44.5243 17.6006 44.4646C16.7217 43.7506 15.9488 42.9743 15.3408 42.1404L15.3369 42.1345L15.0479 41.7527C13.0243 39.0852 12.1605 35.4695 12.5459 32.0261L12.5879 31.6941C13.0521 28.6674 14.3589 26.0422 16.4883 23.7996L16.4912 23.7966C16.5256 23.7602 16.5594 23.7226 16.5947 23.6853L16.5957 23.6863C18.152 22.0533 20.2264 20.845 22.4883 20.1375L22.4941 20.1355C22.5483 20.1184 22.6024 20.1013 22.6582 20.0837Z" stroke="white" stroke-width="5"/>
</svg>
