<svg width="45" height="45" viewBox="0 0 45 45" fill="none" xmlns="http://www.w3.org/2000/svg">
<rect width="45" height="45" rx="5" fill="#12A15E"/>
<path d="M24.8414 17.4613C24.8835 17.47 24.9255 17.4787 24.9688 17.4877C25.7998 17.6663 26.5784 17.9546 27.3261 18.3574C27.3666 18.3789 27.3666 18.3789 27.408 18.4008C29.5641 19.5487 31.205 21.576 31.9282 23.9018C32.6217 26.2407 32.3934 28.8304 31.2365 30.9845C31.2225 31.011 31.2085 31.0375 31.1942 31.0648C30.8493 31.7171 30.4245 32.3087 29.933 32.8582C29.9126 32.8811 29.8922 32.904 29.8712 32.9276C29.634 33.1928 29.3937 33.4466 29.1183 33.6728C29.0821 33.7041 29.0458 33.7353 29.0084 33.7675C28.7189 34.0146 28.4193 34.2389 28.1 34.4468C28.0339 34.4899 28.0339 34.4899 27.9665 34.534C26.0421 35.754 23.5468 36.3036 21.2976 35.8317C21.2372 35.8192 21.2372 35.8192 21.1755 35.8065C19.7181 35.4981 18.3417 34.9057 17.1836 33.958C17.1426 33.9252 17.1015 33.8924 17.0592 33.8587C16.4879 33.3957 15.9558 32.8684 15.5221 32.2737C15.4732 32.207 15.423 32.1415 15.3724 32.076C13.9402 30.188 13.3928 27.6761 13.7086 25.3507C14.0123 23.3389 14.8857 21.5851 16.2875 20.1089C16.3081 20.0871 16.3287 20.0654 16.3499 20.043C17.4179 18.9224 18.8077 18.1252 20.2793 17.6649C20.3099 17.6553 20.3405 17.6456 20.3721 17.6357C21.7967 17.1972 23.386 17.1583 24.8414 17.4613Z" fill="#FEFEFE"/>
<path d="M19.9347 11.5419C20.021 11.627 20.021 11.627 20.0926 11.743C20.6368 12.5536 21.4671 12.9434 22.3939 13.1522C23.3402 13.3198 24.3042 13.0745 25.0976 12.5525C25.4069 12.328 25.6995 12.06 25.9266 11.7514C25.9521 11.7226 25.9776 11.6938 26.0039 11.6641C26.3368 11.6586 26.6636 11.7759 26.9815 11.8677C27.0543 11.8884 27.0543 11.8884 27.1285 11.9094C28.5872 12.3433 29.961 13.0084 31.2177 13.8636C31.2544 13.8885 31.2544 13.8885 31.2919 13.914C31.8322 14.2836 32.3383 14.6976 32.8167 15.1442C32.9247 15.245 33.0345 15.3437 33.1449 15.442C33.3858 15.6586 33.6114 15.8831 33.8226 16.1289C33.8849 16.2014 33.9479 16.2734 34.0113 16.345C35.2915 17.8001 36.25 19.504 36.9203 21.3177C36.9331 21.3519 36.9459 21.3862 36.9591 21.4215C37.4801 22.8241 37.9386 24.452 37.9386 25.9612C36.6482 25.9612 35.3578 25.9612 34.0283 25.9612C33.9552 25.6697 33.8821 25.3782 33.8068 25.0778C33.1602 22.5332 32.2429 20.0935 30.4845 18.0998C30.4655 18.0782 30.4464 18.0565 30.4267 18.0342C30.2021 17.7808 29.9739 17.5398 29.7106 17.3259C29.6896 17.3085 29.6686 17.2911 29.647 17.2731C28.2352 16.1022 26.5647 15.3671 24.7412 15.1263C24.6652 15.1156 24.6652 15.1156 24.5876 15.1046C24.0876 15.0384 23.5901 15.031 23.0863 15.032C22.9476 15.0321 22.809 15.0312 22.6703 15.0302C21.8327 15.0278 21.0065 15.1006 20.1931 15.3062C20.089 15.3321 19.9846 15.3563 19.8801 15.3804C18.7715 15.6445 17.6968 16.1076 16.7576 16.7556C16.7344 16.7714 16.7112 16.7871 16.6874 16.8033C15.8252 17.39 15.0144 18.124 14.4023 18.9704C14.3538 19.0375 14.3041 19.1036 14.2542 19.1697C13.8305 19.7389 13.4724 20.3566 13.1685 20.9973C13.1331 21.0716 13.0969 21.1455 13.0606 21.2194C12.755 21.8526 12.5103 22.5154 12.3177 23.1914C12.305 23.2356 12.305 23.2356 12.2921 23.2807C12.0413 24.1667 11.9278 25.0381 11.8289 25.9612C10.5654 25.9612 9.30182 25.9612 8 25.9612C8.04791 24.7634 8.04791 24.7634 8.0891 24.4134C8.09427 24.3689 8.09943 24.3244 8.10475 24.2786C8.45771 21.4088 9.50244 18.6151 11.3808 16.389C11.4139 16.3485 11.4469 16.3079 11.4809 16.2661C11.7436 15.9469 12.0288 15.6509 12.3202 15.358C12.3758 15.3019 12.3758 15.3019 12.4325 15.2446C12.6805 14.9977 12.9402 14.7738 13.2138 14.5561C13.263 14.5153 13.3122 14.4744 13.3611 14.4334C13.7789 14.0882 14.2241 13.7889 14.6802 13.497C14.7075 13.4796 14.7348 13.4621 14.7629 13.4441C16.0654 12.6183 18.3247 11.3588 19.9347 11.5419Z" fill="#FEFEFE"/>
<path d="M26.8005 21.555C26.9995 21.714 27.1835 21.8862 27.3657 22.0641C27.3972 22.0931 27.4288 22.1221 27.4613 22.1521C28.2944 22.9382 28.8206 24.0502 29.0841 25.1496C29.0909 25.178 29.0977 25.2064 29.1047 25.2356C29.4693 26.8194 29.0806 28.4714 28.2593 29.8414C28.0235 30.2138 27.7475 30.5406 27.4472 30.8623C27.4171 30.895 27.3871 30.9277 27.3561 30.9614C26.2764 32.0937 24.7266 32.7023 23.1796 32.7451C22.6469 32.7543 22.1407 32.7403 21.6224 32.6138C21.5831 32.6047 21.5831 32.6047 21.5431 32.5953C20.3866 32.3236 19.3657 31.7375 18.5267 30.903C18.4973 30.8739 18.4973 30.8739 18.4673 30.8442C17.3243 29.6945 16.7339 28.099 16.7217 26.4937C16.7232 26.0381 16.7552 25.604 16.8566 25.1597C16.8641 25.1265 16.8715 25.0933 16.8792 25.0591C17.0604 24.2812 17.39 23.5169 17.8749 22.8787C17.9012 22.844 17.9274 22.8093 17.9545 22.7735C19.0155 21.4139 20.46 20.5418 22.1721 20.2884C23.8242 20.0961 25.484 20.5402 26.8005 21.555Z" fill="#12A15E"/>
<path d="M25.2948 23.502C25.4939 23.6606 25.6592 23.8213 25.8182 24.0191C25.7703 24.0179 25.7703 24.0179 25.7213 24.0165C25.5737 24.0131 25.4261 24.011 25.2785 24.009C25.2031 24.0069 25.2031 24.0069 25.1261 24.0048C24.4656 23.9979 23.904 24.2436 23.4265 24.6977C22.8944 25.2435 22.7036 25.8579 22.7019 26.6043C22.7129 27.1291 22.9105 27.5833 23.2113 28.0109C23.2282 28.0357 23.2451 28.0605 23.2624 28.086C23.6036 28.5341 24.221 28.845 24.7664 28.9363C25.1492 28.9744 25.517 28.9766 25.8862 28.8563C25.985 28.8244 26.0828 28.8035 26.1848 28.7848C25.7216 29.5764 24.8928 30.1177 24.027 30.3825C22.9601 30.6568 21.9291 30.4957 20.9701 29.9815C20.6639 29.7986 20.4091 29.5633 20.1564 29.3144C20.1236 29.2826 20.0907 29.2507 20.0569 29.218C19.6463 28.7938 19.382 28.2482 19.2195 27.6851C19.2066 27.6403 19.1936 27.5956 19.1802 27.5495C18.9284 26.5144 19.121 25.4956 19.6385 24.5778C20.1937 23.6988 21.0933 23.0359 22.1098 22.8004C23.2197 22.5849 24.3847 22.8359 25.2948 23.502Z" fill="#FEFEFE"/>
<path d="M24.4985 7.46867C24.987 7.83469 25.3825 8.41447 25.4965 9.0216C25.5839 9.7879 25.4619 10.4721 24.9873 11.0939C24.9649 11.124 24.9425 11.154 24.9194 11.185C24.5837 11.5995 24.1159 11.8614 23.6024 11.99C23.5579 12.0016 23.5579 12.0016 23.5125 12.0135C23.0584 12.0821 22.5224 12.0861 22.0953 11.9085C22.0368 11.8854 22.0368 11.8854 21.9772 11.8617C21.6302 11.7074 21.3811 11.4826 21.1177 11.2161C21.0925 11.1913 21.0673 11.1665 21.0413 11.141C20.6295 10.7035 20.4389 10.0506 20.4497 9.46033C20.4845 8.65767 20.8425 8.07632 21.413 7.54647C22.3033 6.79857 23.5587 6.86309 24.4985 7.46867Z" fill="#FEFEFE"/>
</svg>
